
<svg width="48" height="48" viewBox="0 0 48 48" fill="none" xmlns="http://www.w3.org/2000/svg">
  <rect width="48" height="48" rx="8" fill="#1F6F46"/>
  <path d="M14 24C14 18.4772 18.4772 14 24 14C29.5228 14 34 18.4772 34 24C34 29.5228 29.5228 34 24 34C18.4772 34 14 29.5228 14 24Z" stroke="white" stroke-width="2"/>
  <path d="M24 14V34" stroke="white" stroke-width="2"/>
  <path d="M34 24H14" stroke="white" stroke-width="2"/>
  <path d="M24 14C26.7614 14 29 18.4772 29 24C29 29.5228 26.7614 34 24 34C21.2386 34 19 29.5228 19 24C19 18.4772 21.2386 14 24 14Z" stroke="white" stroke-width="2"/>
</svg>
