
<svg width="100" height="100" viewBox="0 0 100 100" fill="none" xmlns="http://www.w3.org/2000/svg">
  <path d="M0 0H100V100H0V0Z" fill="none"/>
  <path d="M50 10C52.7614 10 55 12.2386 55 15C55 17.7614 52.7614 20 50 20C47.2386 20 45 17.7614 45 15C45 12.2386 47.2386 10 50 10Z" fill="white"/>
  <path d="M85 45C87.7614 45 90 47.2386 90 50C90 52.7614 87.7614 55 85 55C82.2386 55 80 52.7614 80 50C80 47.2386 82.2386 45 85 45Z" fill="white"/>
  <path d="M50 80C52.7614 80 55 82.2386 55 85C55 87.7614 52.7614 90 50 90C47.2386 90 45 87.7614 45 85C45 82.2386 47.2386 80 50 80Z" fill="white"/>
  <path d="M15 45C17.7614 45 20 47.2386 20 50C20 52.7614 17.7614 55 15 55C12.2386 55 10 52.7614 10 50C10 47.2386 12.2386 45 15 45Z" fill="white"/>
  <path d="M25 25C26.6569 25 28 26.3431 28 28C28 29.6569 26.6569 31 25 31C23.3431 31 22 29.6569 22 28C22 26.3431 23.3431 25 25 25Z" fill="white"/>
  <path d="M75 25C76.6569 25 78 26.3431 78 28C78 29.6569 76.6569 31 75 31C73.3431 31 72 29.6569 72 28C72 26.3431 73.3431 25 75 25Z" fill="white"/>
  <path d="M75 75C76.6569 75 78 76.3431 78 78C78 79.6569 76.6569 81 75 81C73.3431 81 72 79.6569 72 78C72 76.3431 73.3431 75 75 75Z" fill="white"/>
  <path d="M25 75C26.6569 75 28 76.3431 28 78C28 79.6569 26.6569 81 25 81C23.3431 81 22 79.6569 22 78C22 76.3431 23.3431 75 25 75Z" fill="white"/>
</svg>
